<?xml version="1.0" encoding="UTF-8" standalone="no"?>
<!DOCTYPE svg PUBLIC "-//W3C//DTD SVG 20010904//EN"
              "http://www.w3.org/TR/2001/REC-SVG-20010904/DTD/svg10.dtd">

<svg xmlns="http://www.w3.org/2000/svg"
     width="395.607mm" height="237.1mm"
     viewBox="0 0 1495 896">
  <path id="Unnamed"
        fill="none" stroke="black" stroke-width="1"
        d="M 43.50,439.50
           C 43.50,439.50 96.00,448.50 133.50,421.50
             247.50,373.50 289.50,351.00 372.00,354.00
             374.20,353.27 451.50,357.00 525.00,393.00
             557.03,408.64 604.50,433.50 637.50,463.50
             673.67,485.64 700.50,496.50 700.50,496.50
             700.50,496.50 734.54,526.25 774.00,511.50
             820.25,494.21 873.00,432.00 873.00,432.00
             873.00,432.00 902.59,377.19 903.00,337.50
             903.33,305.21 874.50,286.50 874.50,286.50
             874.50,286.50 858.00,261.00 739.50,262.50
             692.10,248.06 682.50,228.00 682.50,228.00
             682.50,228.00 685.00,197.61 708.00,174.00
             739.80,141.35 795.00,112.50 795.00,112.50
             795.00,112.50 802.99,145.81 820.50,166.50
             835.85,184.64 861.00,190.50 861.00,190.50
             861.00,190.50 963.00,126.00 1053.00,136.50
             1155.00,132.00 1243.50,192.00 1243.50,192.00
             1243.50,192.00 1339.77,251.88 1360.50,345.00
             1398.00,465.00 1330.50,601.50 1330.50,601.50
             1330.50,601.50 1286.35,665.56 1219.50,708.00
             1152.85,750.31 1060.50,753.00 1056.00,766.50
             1056.00,766.50 963.48,784.93 874.50,786.00
             777.11,787.17 690.00,775.50 690.00,775.50" />
</svg>
